<svg width="18" height="18" viewBox="0 0 18 18" fill="none" xmlns="http://www.w3.org/2000/svg">
<path d="M10.6721 3.57982V5.05649H6.96601V3.57982H10.6721ZM11.1731 2.45074H6.465C6.11861 2.45074 5.83813 2.73122 5.83813 3.07761V5.55751C5.83813 5.9039 6.11861 6.18437 6.465 6.18437H11.1731C11.5195 6.18437 11.8 5.9039 11.8 5.55751V3.07761C11.8 2.73122 11.5195 2.45074 11.1731 2.45074V2.45074Z" fill="url(#paint0_linear_20_28)"/>
<path d="M2.85249 5.08527H14.7869C15.3179 5.08527 15.7494 5.51556 15.7494 6.04774V14.0975C15.7494 14.6285 15.3191 15.06 14.7869 15.06H2.85249C2.32031 15.06 1.89001 14.6285 1.89001 14.0975L1.89001 6.04774C1.89001 5.51676 2.32031 5.08527 2.85249 5.08527V5.08527Z" fill="url(#paint1_linear_20_28)"/>
<path d="M15.1572 4.64658H2.48089C2.02902 4.64658 1.66345 5.01215 1.66345 5.46402L1.66345 8.73259C1.66345 8.86204 1.72818 8.9807 1.83605 9.05381C3.42539 10.1314 6.14261 10.7187 8.81907 10.7726C11.4955 10.7187 14.2128 10.1314 15.8021 9.05381C15.9088 8.9819 15.9747 8.86204 15.9747 8.73259V5.46402C15.9747 5.01335 15.6091 4.64658 15.1572 4.64658V4.64658Z" fill="url(#paint2_linear_20_28)"/>
<path d="M9.83178 10.6588V11.7027C9.83178 11.7615 9.74428 11.8094 9.63641 11.8094H8.00152C7.89365 11.8094 7.80615 11.7615 7.80615 11.7027V10.6588C7.80615 10.6 7.89365 10.5521 8.00152 10.5521H9.63641C9.74428 10.5521 9.83178 10.5988 9.83178 10.6588Z" fill="#FFCA28"/>
<path d="M10.0764 10.3303V10.5652C10.0764 10.6731 9.98893 10.7606 9.88105 10.7606H7.75714C7.64927 10.7606 7.56177 10.6731 7.56177 10.5652V10.3303C7.56177 10.2224 7.64927 10.1349 7.75714 10.1349H9.87985C9.98892 10.1349 10.0764 10.2224 10.0764 10.3303Z" fill="#F9A825"/>
<path opacity="0.2" d="M11.1731 2.81032C11.3205 2.81032 11.4404 2.93018 11.4404 3.07761V4.64657C11.4404 4.84554 11.601 5.00615 11.8 5.00615H15.1572C15.4102 5.00615 15.6151 5.21111 15.6151 5.46402V8.73259C15.6151 8.74098 15.6103 8.74937 15.6007 8.75536C15.5959 8.75896 15.5911 8.76135 15.5851 8.76495C15.5732 8.77214 15.5612 8.77933 15.5492 8.78772C15.4485 8.85484 15.3874 8.96751 15.3874 9.08737V14.0975C15.3874 14.4295 15.1165 14.7004 14.7845 14.7004H2.85246C2.52045 14.7004 2.24957 14.4295 2.24957 14.0975V9.08737C2.24957 8.96631 2.18844 8.85365 2.08776 8.78772C2.07577 8.78053 2.06378 8.77214 2.0518 8.76495C2.047 8.76135 2.04101 8.75896 2.03622 8.75536C2.02783 8.74937 2.02183 8.74098 2.02183 8.73259V5.46402C2.02183 5.21111 2.22679 5.00615 2.4797 5.00615H5.83696C6.03593 5.00615 6.19654 4.84554 6.19654 4.64657V3.07761C6.19654 2.93018 6.3164 2.81032 6.46383 2.81032L11.1731 2.81032ZM6.96604 5.00615H10.6721C10.8711 5.00615 11.0317 4.84554 11.0317 4.64657V3.57982C11.0317 3.38086 10.8711 3.22024 10.6721 3.22024H6.96604C6.76708 3.22024 6.60646 3.38086 6.60646 3.57982V4.64657C6.60646 4.84554 6.76827 5.00615 6.96604 5.00615M11.1731 2.45074L6.46503 2.45074C6.11863 2.45074 5.83816 2.73122 5.83816 3.07761V4.64657H2.48089C2.02902 4.64657 1.66345 5.01214 1.66345 5.46402L1.66345 8.73259C1.66345 8.86204 1.72818 8.9807 1.83605 9.05381C1.85283 9.0658 1.87201 9.07659 1.88999 9.08737L1.88999 14.0975C1.88999 14.6297 2.32148 15.06 2.85246 15.06H14.7869C15.3179 15.06 15.7494 14.6297 15.7494 14.0975V9.08737C15.7673 9.07539 15.7865 9.0646 15.8033 9.05381C15.91 8.9819 15.9759 8.86204 15.9759 8.73259V5.46402C15.9759 5.01214 15.6103 4.64657 15.1584 4.64657H11.8V3.07761C11.8 2.73122 11.5195 2.45074 11.1731 2.45074V2.45074ZM6.96604 4.64657V3.57982H10.6709V4.64657H6.96604Z" fill="#424242"/>
<defs>
<linearGradient id="paint0_linear_20_28" x1="8.81904" y1="2.43828" x2="8.81904" y2="5.63673" gradientUnits="userSpaceOnUse">
<stop offset="0.0005936" stop-color="#A1887F"/>
<stop offset="0.2381" stop-color="#927971"/>
<stop offset="0.6929" stop-color="#6C524B"/>
<stop offset="1" stop-color="#4E342E"/>
</linearGradient>
<linearGradient id="paint1_linear_20_28" x1="8.8191" y1="5.19769" x2="8.8191" y2="14.9881" gradientUnits="userSpaceOnUse">
<stop stop-color="#4E342E"/>
<stop offset="0.424" stop-color="#503630"/>
<stop offset="0.618" stop-color="#583D36"/>
<stop offset="0.7651" stop-color="#644941"/>
<stop offset="0.8878" stop-color="#765950"/>
<stop offset="0.9933" stop-color="#8D6E63"/>
</linearGradient>
<linearGradient id="paint2_linear_20_28" x1="8.81907" y1="4.66455" x2="8.81907" y2="10.7214" gradientUnits="userSpaceOnUse">
<stop offset="0.0067402" stop-color="#BCAAA4"/>
<stop offset="1" stop-color="#6D4C41"/>
</linearGradient>
</defs>
</svg>
