<svg width="9" height="9" viewBox="0 0 9 9" fill="none" xmlns="http://www.w3.org/2000/svg">
<path d="M8.50639 1.1759C8.50639 1.21516 8.23398 5.10657 8.0784 6.74454C7.98097 7.74972 7.40734 8.35999 6.54689 8.37674C5.88527 8.39348 5.23857 8.39925 4.6018 8.39925C3.92577 8.39925 3.26465 8.39348 2.62292 8.37674C1.7913 8.35422 1.21717 7.73298 1.12471 6.74454C0.964653 5.10079 0.697222 1.21516 0.692251 1.1759C0.687281 1.05696 0.721082 0.944376 0.78968 0.85373C0.857283 0.768858 0.954711 0.718628 1.05711 0.718628H8.1465C8.2484 0.718628 8.34086 0.768858 8.41393 0.85373C8.48203 0.944376 8.51633 1.05696 8.50639 1.1759" fill="#230B34"/>
</svg>
