<svg width="7" height="9" viewBox="0 0 7 9" fill="none" xmlns="http://www.w3.org/2000/svg">
<path d="M6.73901 2.84438L2.83395 8.54899C2.65474 8.80804 2.39063 8.95376 2.10765 8.95916L0.551287 8.98075C0.466394 8.98075 0.39565 8.91598 0.376785 8.82423L0.023066 7.0918C-0.0382454 6.77338 0.023066 6.44417 0.202284 6.19051L2.97073 2.14277C3.01789 2.07801 3.10278 2.06775 3.15938 2.11578L4.32429 3.1628C4.39975 3.23296 4.50351 3.27074 4.61198 3.25455C4.84308 3.22217 4.99872 2.9847 4.97513 2.73104C4.96099 2.60151 4.90439 2.49357 4.82893 2.41262C4.80535 2.39103 3.69703 1.38719 3.69703 1.38719C3.62629 1.32243 3.61214 1.20369 3.66873 1.12328L4.10734 0.480498C4.51294 -0.107773 5.22038 -0.161743 5.79105 0.35097L6.44661 0.939242C6.71543 1.17671 6.89465 1.48973 6.95596 1.81895C7.02671 2.18109 6.95125 2.53675 6.73901 2.84438" fill="#230B34"/>
</svg>
