<svg width="10" height="4" viewBox="0 0 10 4" fill="none" xmlns="http://www.w3.org/2000/svg">
<path d="M9.19988 3.14797C9.19988 2.91067 9.03435 2.72419 8.83552 2.72419H7.34526C7.04204 2.72419 6.77859 2.48112 6.71099 2.13759L6.62748 1.71612C6.51066 1.20804 6.10703 0.851807 5.65518 0.851807H3.54457C3.08775 0.851807 2.6886 1.20804 2.56731 1.74441L2.48927 2.13817C2.42117 2.48112 2.15771 2.72419 1.85499 2.72419H0.364736C0.165406 2.72419 -0.00012207 2.91067 -0.00012207 3.14797V3.36737C-0.00012207 3.59889 0.165406 3.79115 0.364736 3.79115H8.83552C9.03435 3.79115 9.19988 3.59889 9.19988 3.36737V3.14797Z" fill="#230B34"/>
</svg>
