<svg width="8" height="10" viewBox="0 0 8 10" fill="none" xmlns="http://www.w3.org/2000/svg">
<path d="M7.17474 3.63124L3.26968 9.33585C3.09047 9.59491 2.82636 9.74063 2.54338 9.74602L0.987017 9.76761C0.902124 9.76761 0.83138 9.70285 0.812515 9.6111L0.458796 7.87867C0.397485 7.56025 0.458796 7.23103 0.638014 6.97737L3.40646 2.92963C3.45362 2.86487 3.53851 2.85462 3.59511 2.90265L4.76002 3.94966C4.83548 4.01982 4.93924 4.0576 5.04771 4.04141C5.27881 4.00903 5.43445 3.77156 5.41086 3.5179C5.39672 3.38838 5.34012 3.28044 5.26466 3.19948C5.24108 3.1779 4.13276 2.17406 4.13276 2.17406C4.06202 2.10929 4.04787 1.99056 4.10446 1.91014L4.54307 1.26736C4.94867 0.679092 5.65611 0.625122 6.22678 1.13784L6.88234 1.72611C7.15116 1.96357 7.33038 2.2766 7.39169 2.60581C7.46244 2.96795 7.38698 3.32361 7.17474 3.63124" fill="#230B34"/>
</svg>
