<svg width="16" height="16" viewBox="0 0 16 16" fill="none" xmlns="http://www.w3.org/2000/svg">
<path d="M8.77936 14.4646C7.40969 14.4646 5.38446 14.4256 3.62215 14.0892C1.26857 13.6403 1.09291 12.7161 1.11472 11.808C1.13309 11.0353 1.4867 8.44867 1.83572 7.39013C2.36384 5.78969 3.17095 4.19844 3.66233 3.51418C4.33626 2.57619 6.04461 1.06875 7.76215 1.01709H7.77823C8.00555 1.01709 8.23172 1.16634 8.3672 1.40629L9.03883 2.59112C9.19956 2.87584 9.19612 3.22601 9.02964 3.50615C8.89302 3.73576 8.49578 3.79776 8.49234 3.79891L8.17661 3.84483L8.38901 4.08478C8.38786 4.08478 8.45904 4.19729 8.29142 4.44069C8.14217 4.65768 7.8517 4.76215 7.4051 4.76215C6.98605 4.76215 6.50844 4.66686 6.12498 4.59109C6.10202 4.5865 6.07791 4.5842 6.0538 4.5842C5.91144 4.5842 5.76448 4.66342 5.6313 4.81267C5.45909 5.0044 4.91604 5.78395 5.13648 7.75981C5.24554 8.74028 4.92064 9.62316 4.91719 9.63234L4.78057 9.99744L5.14222 9.85278C5.14566 9.85048 5.69674 9.63464 6.45448 9.63464H6.53485L6.58651 9.57264C6.60259 9.55313 8.18695 7.68059 10.2432 7.68059C11.5864 7.68059 12.8723 8.22479 13.6828 9.13637C14.2546 9.7793 14.5221 10.5405 14.4348 11.2787C14.0973 14.1466 11.3913 14.4566 10.2432 14.4566C10.0824 14.4566 9.89415 14.4578 9.68405 14.4601C9.41655 14.4624 9.11231 14.4646 8.77936 14.4646V14.4646Z" fill="url(#paint0_linear_20_348)"/>
<path d="M7.7795 1.1905C7.94252 1.1905 8.11474 1.30875 8.21921 1.49244L8.89084 2.67727C9.02173 2.90804 9.01828 3.19276 8.88396 3.42008C8.81852 3.5303 8.59693 3.61067 8.47064 3.63018L7.83575 3.71973L8.23069 4.16519C8.22955 4.18815 8.21692 4.24671 8.15033 4.34315C8.03667 4.50732 7.78638 4.59113 7.40522 4.59113C7.00339 4.59113 6.53497 4.49814 6.15954 4.42351C6.1251 4.41662 6.08951 4.41318 6.05507 4.41318C5.92074 4.41318 5.71523 4.46255 5.50399 4.69905C5.01375 5.24669 4.81284 6.39822 4.96553 7.77937C5.06886 8.71277 4.75888 9.56465 4.75543 9.57269L4.48448 10.2971L5.20548 10.0136C5.20893 10.0101 5.7336 9.8069 6.4546 9.8069H6.61648L6.71981 9.68291C6.73474 9.66454 8.27203 7.85285 10.2444 7.85285C11.5395 7.85285 12.7771 8.37523 13.5555 9.25122C14.094 9.85742 14.3466 10.5704 14.265 11.2592C14.1399 12.3201 13.668 13.1168 12.8609 13.63C12.0068 14.1708 10.9666 14.2844 10.2433 14.2844C10.0826 14.2844 9.89427 14.2856 9.68303 14.2879C9.41552 14.2902 9.11128 14.2925 8.78063 14.2925C7.41785 14.2925 5.40295 14.2534 3.65556 13.9205C2.62573 13.7242 1.95754 13.4268 1.60967 13.0124C1.31002 12.6553 1.27902 12.2248 1.28821 11.8126C1.30657 11.048 1.65559 8.49004 2.00117 7.44528C2.50518 5.91832 3.31343 4.29952 3.80481 3.61641C4.45922 2.70482 6.11477 1.24101 7.76916 1.19164L7.7795 1.1905ZM7.7795 0.846069H7.75883C5.9437 0.900029 4.18828 2.48898 3.52468 3.41434C3.01837 4.12042 2.19979 5.74496 1.67396 7.33621C1.32724 8.38786 0.963296 10.9837 0.943779 11.8034C0.919669 12.8057 1.15618 13.7931 3.59127 14.258C5.32374 14.5887 7.31911 14.6369 8.78063 14.6369C9.37419 14.6369 9.87935 14.6289 10.2433 14.6289C12.195 14.6289 14.3064 13.8493 14.606 11.2994C14.8356 9.34766 12.7691 7.50843 10.2433 7.50843C8.07915 7.50843 6.4546 9.46247 6.4546 9.46247C5.65094 9.46247 5.0769 9.69209 5.0769 9.69209C5.0769 9.69209 5.42132 8.77362 5.30651 7.74034C5.07804 5.68067 5.69686 4.75646 6.05392 4.75646C6.06655 4.75646 6.07918 4.75761 6.09181 4.7599C6.48904 4.83912 6.97124 4.93441 7.40522 4.93441C7.8392 4.93441 8.22495 4.83912 8.43276 4.53832C8.69108 4.16519 8.51772 3.97002 8.51772 3.97002C8.51772 3.97002 8.99647 3.90228 9.17902 3.59459C9.37763 3.2605 9.38223 2.84489 9.1905 2.50621L8.51772 1.32138C8.36502 1.05158 8.08833 0.846069 7.7795 0.846069V0.846069Z" fill="#EDA600"/>
<path d="M7.69217 2.51891C7.404 2.46495 7.06072 2.45347 6.79322 2.58894C6.46142 2.75771 6.34546 3.19513 6.53834 3.51315C6.82766 3.98731 7.60951 4.03324 8.10434 4.01372C8.32477 4.00454 8.32592 3.66011 8.10434 3.66929C7.74728 3.68307 7.30182 3.6647 6.99069 3.47527C6.76796 3.33864 6.69219 3.02636 6.96658 2.88745C7.14339 2.79675 7.40859 2.81626 7.59918 2.85186C7.81731 2.89089 7.91031 2.55909 7.69217 2.51891Z" fill="#EDA600"/>
<path d="M4.64047 9.89187C4.08939 10.6944 3.94703 11.5015 4.1422 12.4521C4.18698 12.6691 4.51877 12.5772 4.474 12.3603C4.29719 11.4969 4.43726 10.7943 4.93783 10.0652C5.06412 9.88269 4.76561 9.71047 4.64047 9.89187Z" fill="#EDA600"/>
<path d="M5.96894 4.4006C5.71406 4.36386 5.35012 4.05502 5.19857 3.72897C5.15265 3.63023 5.17217 3.49016 4.99192 3.47983C4.74278 3.46606 4.92533 3.96662 5.01029 4.08947C5.24335 4.42356 5.55907 4.6107 5.97238 4.64055C6.19397 4.65662 6.19626 4.43275 5.96894 4.4006Z" fill="#EDA600"/>
<path d="M6.63252 11.0009C6.92184 12.1961 8.00563 13.087 9.20079 13.2488C10.3546 13.405 12.2926 13.1375 12.8609 11.9033C12.9527 11.7035 12.6565 11.5279 12.5635 11.7299C12.0435 12.8608 10.187 13.0743 9.14454 12.8952C8.12388 12.7196 7.2123 11.9343 6.96546 10.9102C6.91265 10.6944 6.58085 10.7851 6.63252 11.0009V11.0009Z" fill="#EDA600"/>
<defs>
<linearGradient id="paint0_linear_20_348" x1="7.78225" y1="13.5611" x2="7.78225" y2="2.55094" gradientUnits="userSpaceOnUse">
<stop stop-color="#FFB300"/>
<stop offset="0.4007" stop-color="#FFCA28"/>
</linearGradient>
</defs>
</svg>
