<svg width="25" height="24" viewBox="0 0 25 24" fill="none" xmlns="http://www.w3.org/2000/svg">
<g clip-path="url(#clip0_1_757)">
<path d="M8.5 1V5H4.5V19H20.5V3H21.508C22.056 3 22.5 3.445 22.5 3.993V20.007C22.4982 20.2696 22.3931 20.521 22.2075 20.7068C22.0219 20.8926 21.7706 20.9979 21.508 21H3.492C3.22881 20.9997 2.9765 20.895 2.79049 20.7088C2.60448 20.5226 2.5 20.2702 2.5 20.007V3.993C2.50183 3.73038 2.6069 3.47902 2.79251 3.29322C2.97813 3.10742 3.22938 3.00209 3.492 3H6.5V1H8.5ZM12.5 8L16.5 12H13.5V16H11.5V12H8.5L12.5 8ZM18.5 1V5H10.5V3H16.5V1H18.5Z" fill="#98A2B3"/>
</g>
<defs>
<clipPath id="clip0_1_757">
<rect width="24" height="24" fill="white" transform="translate(0.5)"/>
</clipPath>
</defs>
</svg>
