<svg width="25" height="25" viewBox="0 0 25 25" fill="none" xmlns="http://www.w3.org/2000/svg">
<path d="M18.6062 6.16058V10.8205H15.901V6.21294C15.901 5.21813 15.0982 4.4153 14.1034 4.4153H10.6128C10.4557 4.4153 10.3161 4.43275 10.1765 4.46766C10.1241 4.48511 10.0543 4.50256 10.002 4.52002C9.94961 4.53747 9.89725 4.55492 9.84489 4.58983C9.79253 4.60728 9.74017 4.64219 9.70527 4.67709C9.37367 4.86907 9.11187 5.16577 8.97225 5.51483C8.9548 5.54973 8.9548 5.56719 8.93735 5.60209C8.90244 5.6719 8.88499 5.75917 8.86753 5.82898V5.86388C8.85008 5.9686 8.83263 6.07332 8.83263 6.19549V10.8205H6.1449V6.21294C6.1449 5.98605 6.16235 5.77662 6.19726 5.56719C6.21471 5.49737 6.21471 5.42756 6.23216 5.35775C6.23216 5.32285 6.24961 5.30539 6.24961 5.27049C6.28452 5.14832 6.30197 5.0087 6.35433 4.88653C6.79065 3.4903 7.90763 2.37332 9.30385 1.937C9.42602 1.9021 9.54819 1.86719 9.68782 1.83229C9.72272 1.83229 9.74017 1.81483 9.77508 1.81483C9.84489 1.79738 9.9147 1.79738 9.98451 1.77993C10.1939 1.74502 10.4208 1.72757 10.6303 1.72757H14.1208C14.5571 1.72757 14.976 1.79738 15.36 1.9021C15.6043 1.97191 15.8312 2.05917 16.0406 2.16389C16.1803 2.2337 16.3199 2.30351 16.4595 2.39078C16.5293 2.42568 16.5642 2.44313 16.6166 2.47804C16.7387 2.54785 16.8435 2.63512 16.9482 2.73983C17.0529 2.8271 17.1576 2.93181 17.2623 3.01908C17.367 3.12379 17.4543 3.22851 17.5416 3.33323C17.6812 3.50776 17.8034 3.68228 17.9081 3.85681C17.9779 3.97898 18.0477 4.10115 18.1175 4.24077C18.1873 4.36294 18.2397 4.50256 18.292 4.64219C18.327 4.76436 18.3793 4.88653 18.4142 5.0087C18.5189 5.3752 18.6062 5.75917 18.6062 6.16058V6.16058Z" fill="#BDBDBD"/>
<path opacity="0.2" d="M18.4842 5.27048C18.4667 5.18322 18.4492 5.0785 18.4143 4.99124C18.3794 4.86907 18.3445 4.7469 18.2922 4.62473C18.2398 4.48511 18.1875 4.36294 18.1176 4.22332C18.0478 4.10115 17.978 3.96152 17.9082 3.83935C17.786 3.66483 17.6639 3.4903 17.5417 3.31577C17.4544 3.21105 17.3497 3.10634 17.2625 3.00162C17.1577 2.8969 17.053 2.80964 16.9483 2.72238C16.8436 2.63511 16.7214 2.54785 16.6167 2.46058C16.5643 2.42568 16.5294 2.40823 16.4771 2.37332C16.3375 2.28606 16.1978 2.21624 16.0582 2.14643C15.8488 2.04172 15.6044 1.95445 15.3776 1.88464C15.3252 1.86719 15.2728 1.84974 15.2379 1.84974C14.8889 1.76247 14.5224 1.71011 14.1384 1.71011H10.6478C10.4733 1.71011 10.3162 1.71011 10.1592 1.74502C10.1068 1.74502 10.0544 1.76247 10.0021 1.76247C9.93228 1.77992 9.86247 1.77992 9.79266 1.79738C9.75775 1.79738 9.7403 1.81483 9.70539 1.81483C9.58322 1.84974 9.4436 1.86719 9.32143 1.91955C7.92521 2.35587 6.80823 3.47285 6.37191 4.86907C6.337 4.99124 6.3021 5.11341 6.26719 5.25303C6.26719 5.28794 6.24974 5.30539 6.24974 5.3403C6.23229 5.41011 6.21483 5.47992 6.21483 5.54973C6.21483 5.60209 6.19738 5.65445 6.19738 5.7068C6.17993 5.86388 6.16248 6.03841 6.16248 6.19548V10.803H6.68606V6.21294C6.68606 4.03134 8.46624 2.25115 10.6478 2.25115H14.1384C16.3026 2.25115 18.0653 4.01388 18.0653 6.17803V10.8205H18.5889V6.16058C18.5714 5.86388 18.554 5.56718 18.4842 5.27048V5.27048ZM14.086 3.87426H10.6129C9.33889 3.87426 8.30917 4.90398 8.30917 6.17803V10.803H8.83275V6.17803C8.83275 6.12567 8.83275 6.05586 8.85021 6.0035C8.85021 5.95114 8.86766 5.89879 8.86766 5.84643C8.86766 5.82897 8.86766 5.82897 8.86766 5.81152C8.88511 5.72426 8.90256 5.65445 8.93747 5.58463C8.93747 5.54973 8.95492 5.53228 8.97238 5.49737C9.112 5.14831 9.37379 4.83416 9.70539 4.64218C9.75775 4.60728 9.81011 4.58983 9.84502 4.55492C9.89737 4.53747 9.94973 4.50256 10.0021 4.48511C10.0544 4.46766 10.1068 4.4502 10.1766 4.43275C10.3162 4.39784 10.4733 4.38039 10.6129 4.38039H14.086C15.0809 4.38039 15.8837 5.18322 15.8837 6.17803V10.7856H16.4073V6.21294C16.4073 4.92143 15.3776 3.87426 14.086 3.87426V3.87426Z" fill="#424242"/>
<path d="M19.1996 22.7233H5.55152C4.85341 22.7233 4.27747 22.1473 4.27747 21.4492V11.0823C4.27747 10.3841 4.85341 9.8082 5.55152 9.8082H19.1996C19.8977 9.8082 20.4737 10.3841 20.4737 11.0823V21.4492C20.4737 22.1473 19.8977 22.7233 19.1996 22.7233Z" fill="url(#paint0_linear_20_62)"/>
<path opacity="0.2" d="M19.1996 10.3143C19.6185 10.3143 19.9501 10.6459 19.9501 11.0648V21.4318C19.9501 21.8506 19.6185 22.1822 19.1996 22.1822H5.55152C5.13265 22.1822 4.80105 21.8506 4.80105 21.4318V11.0822C4.80105 10.6634 5.13265 10.3318 5.55152 10.3318L19.1996 10.3143ZM19.1996 9.79074H5.55152C4.85341 9.79074 4.27747 10.3667 4.27747 11.0648V21.4318C4.27747 22.1299 4.85341 22.7058 5.55152 22.7058H19.1996C19.8977 22.7058 20.4737 22.1299 20.4737 21.4318V11.0822C20.4737 10.3667 19.8977 9.79074 19.1996 9.79074Z" fill="#424242"/>
<defs>
<linearGradient id="paint0_linear_20_62" x1="12.3756" y1="22.5539" x2="12.3756" y2="9.86087" gradientUnits="userSpaceOnUse">
<stop offset="0.0053611" stop-color="#FFA000"/>
<stop offset="1" stop-color="#FFC107"/>
</linearGradient>
</defs>
</svg>
