<svg width="19" height="19" viewBox="0 0 19 19" fill="none" xmlns="http://www.w3.org/2000/svg">
<path d="M7.58443 16.9691C4.70515 16.9691 2.69307 14.8728 2.69307 11.8699V9.57485L2.41936 5.34936C2.39435 5.00064 2.48515 4.69007 2.67333 4.47294C2.8273 4.29529 3.04311 4.19265 3.29577 4.17422C3.32209 4.17291 3.34841 4.17159 3.37341 4.17159C3.909 4.17159 4.28405 4.57295 4.32747 5.19408C4.32747 5.19934 4.32879 5.20592 4.32879 5.21119L4.83674 8.36813C4.85253 8.46288 4.93412 8.53394 5.03019 8.53394C6.33823 8.54052 8.08317 8.70238 9.58203 8.95636C9.59256 8.95768 9.6044 8.95899 9.61493 8.95899C9.66099 8.95899 9.70573 8.9432 9.74126 8.91293C9.786 8.87609 9.81101 8.82214 9.81232 8.76423L9.9097 2.58457C9.93734 2.08451 10.2374 1.57129 10.844 1.57129C10.8638 1.57129 10.8835 1.57129 10.9046 1.57261C11.1822 1.58708 11.4125 1.70683 11.5691 1.91607C11.7218 2.12135 11.7968 2.40297 11.7797 2.70826L11.7178 9.16033C11.7152 9.41562 11.7323 9.64197 11.7704 9.85383C11.9481 10.8447 12.4087 11.0579 12.7127 11.2C12.8443 11.2619 12.9206 11.2987 12.9548 11.3645C13.1864 11.8106 12.9943 12.9792 12.2731 14.1649C11.7626 15.0084 10.2795 16.9691 7.58443 16.9691V16.9691Z" fill="url(#paint0_radial_20_69)"/>
<path d="M10.8467 1.76997C10.8625 1.76997 10.8796 1.76997 10.8967 1.77128C11.0941 1.78181 11.2547 1.85419 11.3744 1.9871C11.5244 2.15422 11.6021 2.41346 11.5863 2.69902V2.71745L11.5244 9.1603C11.5218 9.42744 11.5402 9.66562 11.581 9.89065C11.7771 10.9816 12.314 11.2316 12.6338 11.3803C12.689 11.4066 12.7641 11.4408 12.7851 11.4606C12.9509 11.7909 12.8509 12.841 12.1074 14.0648C11.6113 14.8781 10.1795 16.7717 7.5845 16.7717C6.18434 16.7717 4.99472 16.2782 4.14331 15.3452C3.33532 14.4596 2.89185 13.2266 2.89185 11.8698V9.57482C2.89185 9.56693 2.89185 9.55772 2.89053 9.54982L2.61681 5.33486C2.59576 5.04403 2.67077 4.7769 2.82342 4.60319C2.94448 4.4637 3.10766 4.38606 3.31032 4.3729C3.33269 4.37159 3.35374 4.37027 3.3748 4.37027C3.88933 4.37027 4.10515 4.82295 4.13147 5.20984C4.13278 5.22168 4.1341 5.23353 4.13541 5.24406L4.64337 8.401C4.67363 8.59181 4.83813 8.73262 5.03157 8.73262C6.32909 8.7392 8.06219 8.89975 9.55183 9.15241C9.57421 9.15635 9.59526 9.15767 9.61763 9.15767C9.70975 9.15767 9.79923 9.12609 9.87029 9.06687C9.95846 8.99318 10.0111 8.88527 10.0124 8.76947L10.1098 2.59769C10.1322 2.21344 10.3388 1.76997 10.8467 1.76997M10.8467 1.37518C10.1769 1.37518 9.75317 1.90156 9.71501 2.5819L9.61763 8.76157C8.22273 8.52602 6.45805 8.3431 5.03289 8.33652L4.52493 5.17957C4.47624 4.4966 4.0433 3.97285 3.37348 3.97285C3.34322 3.97285 3.31295 3.97417 3.28137 3.97549C2.56023 4.02549 2.17071 4.6453 2.22203 5.35986L2.49575 9.57219V11.8672C2.49575 14.7807 4.41308 17.1639 7.5845 17.1639C11.7942 17.1639 13.7655 12.4923 13.1325 11.2711C12.9312 10.8829 12.2061 11.1447 11.9679 9.81696C11.9284 9.60114 11.9166 9.38006 11.9179 9.1603L11.9797 2.71745C12.0179 2.01736 11.6271 1.41598 10.9165 1.3765C10.8928 1.37518 10.8691 1.37518 10.8467 1.37518V1.37518Z" fill="#4A2F27"/>
<path opacity="0.4" d="M7.56075 13.4187C9.56229 13.4187 11.1849 12.2127 11.1849 10.725C11.1849 9.23728 9.56229 8.03125 7.56075 8.03125C5.55921 8.03125 3.93665 9.23728 3.93665 10.725C3.93665 12.2127 5.55921 13.4187 7.56075 13.4187Z" fill="url(#paint1_radial_20_69)"/>
<path d="M8.42405 11.9317C8.15954 11.9317 7.93189 11.8435 7.76608 11.6751C7.58579 11.4922 7.48841 11.2277 7.49236 10.929L7.38708 8.16811C7.39366 7.61936 7.88978 7.16273 8.49248 7.1601C8.80304 7.1601 9.08334 7.27458 9.28731 7.48119C9.47022 7.66673 9.57023 7.90887 9.56629 8.16284L9.39653 10.904C9.38863 11.5106 8.99122 11.9291 8.428 11.9317H8.42405Z" fill="url(#paint2_radial_20_69)"/>
<path d="M8.4964 6.96271V7.35749C8.74906 7.35749 8.97935 7.45092 9.14648 7.61936C9.28992 7.76543 9.36887 7.95361 9.36887 8.151L9.19912 10.8908C9.19912 10.8974 9.19912 10.904 9.1978 10.9105C9.19254 11.3185 8.95303 11.7304 8.42271 11.733C8.20821 11.733 8.03451 11.6659 7.90554 11.5356C7.76211 11.3909 7.68578 11.1764 7.68841 10.9303V10.9105L7.58445 8.17074C7.59498 7.72332 8.00029 7.35881 8.49377 7.35749L8.4964 6.96271ZM8.4964 6.96271H8.49114C7.78053 6.96534 7.19757 7.50882 7.18835 8.17469L7.29363 10.9263C7.28573 11.5909 7.71605 12.1291 8.42271 12.1291H8.42797C9.13858 12.1265 9.58469 11.583 9.59258 10.9171L9.76365 8.16548C9.77287 7.49961 9.2057 6.96271 8.4964 6.96271V6.96271Z" fill="#4A2F27"/>
<path d="M6.16463 11.7514C5.64484 11.7514 5.25137 11.379 5.1882 10.8237L4.78947 8.56025C4.76184 8.31154 4.83816 8.0523 5.0066 7.84306C5.19215 7.61277 5.47508 7.46275 5.78433 7.43117C5.82512 7.42722 5.86723 7.42459 5.90802 7.42459C6.48178 7.42459 6.95946 7.82332 7.02 8.35233L7.13975 10.5921C7.17659 10.9132 7.1029 11.2 6.93314 11.4106C6.77918 11.6014 6.55547 11.7172 6.28702 11.7448C6.24491 11.7501 6.20411 11.7514 6.16463 11.7514V11.7514Z" fill="url(#paint3_radial_20_69)"/>
<path d="M5.90666 7.62461C6.37514 7.62461 6.76729 7.94307 6.82124 8.3668L6.94231 10.6052C6.94231 10.6131 6.94362 10.621 6.94494 10.6289C6.97389 10.8855 6.91599 11.1198 6.77913 11.2895C6.65938 11.4382 6.48173 11.529 6.26591 11.5501C6.2317 11.554 6.19749 11.5553 6.16459 11.5553C5.74349 11.5553 5.43687 11.2606 5.38423 10.8026L5.38028 10.7789L4.9855 8.54051C4.96445 8.33654 5.0263 8.13388 5.15921 7.96807C5.31186 7.77858 5.54609 7.65488 5.8027 7.62856C5.83823 7.62593 5.87245 7.62461 5.90666 7.62461M5.90666 7.22983C5.85929 7.22983 5.81191 7.23246 5.76322 7.23641C5.03946 7.3101 4.51571 7.91807 4.59467 8.59578L4.99208 10.8474C5.06446 11.4803 5.51583 11.9488 6.16459 11.9488C6.21064 11.9488 6.25802 11.9462 6.30539 11.9422C7.02916 11.8685 7.41473 11.2606 7.33709 10.5829L7.21603 8.33127C7.14233 7.6983 6.57121 7.22983 5.90666 7.22983V7.22983Z" fill="#4A2F27"/>
<path d="M15.5341 9.37746C16.521 9.55906 17.2777 10.1828 17.1724 10.8987C17.0921 11.4422 16.6855 11.8449 15.9144 11.7422C14.5853 11.5646 13.5496 12.1791 13.1088 13.1042C12.5574 14.2622 11.8086 15.2913 11.4809 15.4137C10.0676 15.9427 8.80563 14.9215 8.99513 13.2845C9.19647 11.5409 11.2493 10.3184 11.7849 10.0618C12.5561 9.69066 13.9878 9.09453 15.5341 9.37746V9.37746Z" fill="url(#paint4_radial_20_69)"/>
<path d="M15.534 9.37743C15.2524 9.32611 14.9748 9.30374 14.705 9.30374C13.4891 9.30374 12.4166 9.75774 11.7836 10.0617C11.5428 10.1775 10.7111 10.7197 10.1624 11.1869C10.5071 11.2684 11.777 10.5026 11.9547 10.417C12.3244 10.2394 13.4496 9.69852 14.705 9.69852C14.9629 9.69852 15.2182 9.7209 15.463 9.76564C16.2696 9.91302 16.8487 10.3854 16.7815 10.8408C16.7302 11.1882 16.517 11.3632 16.1459 11.3632C16.0894 11.3632 16.0288 11.3592 15.9657 11.35C15.7972 11.3277 15.6275 11.3158 15.463 11.3158C14.2655 11.3158 13.2259 11.9356 12.7508 12.9331C12.5732 13.3055 12.3863 13.6753 12.1679 14.0267C12.0639 14.1938 11.956 14.357 11.8283 14.507C11.652 14.7136 11.4665 14.9123 11.2783 15.1084C11.1835 15.2071 11.0888 15.3044 10.994 15.4018C10.9453 15.4518 10.8993 15.5084 10.8466 15.5532C10.823 15.5729 10.7519 15.6492 10.7256 15.6505C10.9072 15.6387 11.5533 16.144 13.1061 13.1016C13.518 12.2949 14.351 11.7093 15.4617 11.7093C15.6077 11.7093 15.7577 11.7198 15.9117 11.7396C15.9933 11.7501 16.0709 11.7553 16.1433 11.7553C16.7644 11.7553 17.0974 11.3816 17.1697 10.896C17.2777 10.1841 16.521 9.55903 15.534 9.37743V9.37743Z" fill="#4A2E26"/>
<defs>
<radialGradient id="paint0_radial_20_69" cx="0" cy="0" r="1" gradientUnits="userSpaceOnUse" gradientTransform="translate(7.54201 2.22554) rotate(90.1261) scale(15.0563 6.71652)">
<stop offset="0.2457" stop-color="#5C4037"/>
<stop offset="0.6884" stop-color="#70534A"/>
<stop offset="0.9991" stop-color="#5C4037"/>
</radialGradient>
<radialGradient id="paint1_radial_20_69" cx="0" cy="0" r="1" gradientUnits="userSpaceOnUse" gradientTransform="translate(7.56128 10.7249) scale(3.88874 2.37058)">
<stop offset="0.3" stop-color="#70534A" stop-opacity="0.8"/>
<stop offset="1" stop-color="#70534A" stop-opacity="0"/>
</radialGradient>
<radialGradient id="paint2_radial_20_69" cx="0" cy="0" r="1" gradientUnits="userSpaceOnUse" gradientTransform="translate(8.4788 7.86198) rotate(90.3909) scale(3.83232 1.30775)">
<stop offset="0.6064" stop-color="#70534A"/>
<stop offset="0.9991" stop-color="#5C4037"/>
</radialGradient>
<radialGradient id="paint3_radial_20_69" cx="0" cy="0" r="1" gradientUnits="userSpaceOnUse" gradientTransform="translate(5.98474 9.18743) scale(1.92904)">
<stop offset="0.6064" stop-color="#70534A"/>
<stop offset="0.9991" stop-color="#5C4037"/>
</radialGradient>
<radialGradient id="paint4_radial_20_69" cx="0" cy="0" r="1" gradientUnits="userSpaceOnUse" gradientTransform="translate(11.6845 7.64836) rotate(163.581) scale(8.70997 9.77632)">
<stop stop-color="#70534A"/>
<stop offset="0.9991" stop-color="#5C4037"/>
</radialGradient>
</defs>
</svg>
