<svg width="22" height="22" viewBox="0 0 22 22" fill="none" xmlns="http://www.w3.org/2000/svg">
<path d="M15.0995 3.22305C12.1221 3.22305 11.0281 6.26568 11.0281 6.26568C11.0281 6.26568 9.94916 3.22305 6.95139 3.22305C4.6983 3.22305 2.12994 5.00867 3.07846 9.06777C4.02699 13.1269 11.0363 18.1834 11.0363 18.1834C11.0363 18.1834 18.0198 13.1269 18.9697 9.06777C19.9182 5.00867 17.5347 3.22305 15.0995 3.22305V3.22305Z" fill="#F44336"/>
<path d="M6.49206 3.52609C8.82941 3.52609 9.98993 6.03874 10.365 7.05657C10.418 7.20197 10.6205 7.20605 10.6816 7.06472L11.0241 6.26432C10.5416 4.7233 9.21534 3.22305 6.95138 3.22305C6.01372 3.22305 5.02307 3.53289 4.25256 4.18653C4.93338 3.73944 5.73107 3.52609 6.49206 3.52609V3.52609Z" fill="#CC3333"/>
<path d="M15.0994 3.22305C14.3806 3.22305 13.7256 3.37933 13.2146 3.6946C13.5734 3.55599 14.0177 3.52609 14.458 3.52609C16.6608 3.52609 18.6326 5.19621 17.7425 9.0569C16.9788 12.3713 12.5161 16.3924 11.1531 17.9266C11.0662 18.0244 11.0363 18.182 11.0363 18.182C11.0363 18.182 18.0197 13.1255 18.9696 9.06641C19.9182 5.00867 17.5387 3.22305 15.0994 3.22305V3.22305Z" fill="#CC3333"/>
<path d="M4.6426 5.37696C5.15219 4.74098 6.06267 4.21508 6.83454 4.82116C7.25172 5.14866 7.06963 5.81996 6.69593 6.10262C6.15236 6.51573 5.67945 6.76441 5.34788 7.41126C5.14947 7.79991 5.02989 8.22525 4.96874 8.65875C4.94428 8.82997 4.72006 8.8721 4.6358 8.72126C4.06234 7.70479 3.89927 6.3051 4.6426 5.37696Z" fill="#FF8A80"/>
<path d="M12.8124 6.71412C12.5733 6.71412 12.4047 6.4831 12.4917 6.26024C12.6534 5.84985 12.8627 5.45304 13.1141 5.09972C13.4864 4.5779 14.1944 4.2735 14.6429 4.59013C15.1022 4.91355 15.0424 5.5604 14.7203 5.87295C14.0287 6.5429 13.1562 6.71412 12.8124 6.71412Z" fill="#FF8A80"/>
</svg>
