<svg width="30" height="29" viewBox="0 0 30 29" fill="none" xmlns="http://www.w3.org/2000/svg">
<path d="M13.3816 2.69789C13.7407 0.935373 16.2593 0.935374 16.6184 2.69789C17.0882 5.00301 19.8263 5.9996 21.6679 4.53572C23.0759 3.41643 25.0052 5.03531 24.1474 6.61635C23.0256 8.68412 24.4825 11.2076 26.8342 11.2699C28.6323 11.3176 29.0696 13.7978 27.3963 14.4576C25.2077 15.3205 24.7017 18.1901 26.4632 19.7495C27.81 20.9418 26.5507 23.1229 24.8447 22.5527C22.6136 21.8069 20.3814 23.6799 20.7284 26.0067C20.9937 27.7857 18.6271 28.6471 17.6867 27.1137C16.4569 25.1083 13.5431 25.1083 12.3133 27.1137C11.3729 28.6471 9.00629 27.7857 9.2716 26.0067C9.61858 23.6799 7.38645 21.8069 5.15528 22.5527C3.44931 23.1229 2.19005 20.9418 3.53684 19.7495C5.29826 18.1901 4.79228 15.3205 2.60375 14.4576C0.930378 13.7978 1.36772 11.3176 3.16582 11.2699C5.5175 11.2076 6.97442 8.68412 5.85256 6.61635C4.99478 5.03531 6.92408 3.41643 8.33215 4.53572C10.1737 5.9996 12.9118 5.00301 13.3816 2.69789Z" fill="#C3FF76" stroke="#3322F5" stroke-width="1.5"/>
</svg>
