<svg width="28" height="28" viewBox="0 0 28 28" fill="none" xmlns="http://www.w3.org/2000/svg">
<path d="M26.7478 12.3182L24.9345 10.2115C24.5878 9.8115 24.3078 9.06483 24.3078 8.5315V6.26483C24.3078 4.8515 23.1478 3.6915 21.7345 3.6915H19.4678C18.9478 3.6915 18.1878 3.4115 17.7878 3.06483L15.6812 1.2515C14.7612 0.464832 13.2545 0.464832 12.3212 1.2515L10.2278 3.07817C9.82777 3.4115 9.06777 3.6915 8.54777 3.6915H6.24111C4.82777 3.6915 3.66777 4.8515 3.66777 6.26483V8.54483C3.66777 9.06483 3.38777 9.8115 3.05444 10.2115L1.25444 12.3315C0.481105 13.2515 0.481105 14.7448 1.25444 15.6648L3.05444 17.7848C3.38777 18.1848 3.66777 18.9315 3.66777 19.4515V21.7315C3.66777 23.1448 4.82777 24.3048 6.24111 24.3048H8.54777C9.06777 24.3048 9.82777 24.5848 10.2278 24.9315L12.3345 26.7448C13.2545 27.5315 14.7612 27.5315 15.6945 26.7448L17.8012 24.9315C18.2012 24.5848 18.9478 24.3048 19.4812 24.3048H21.7478C23.1612 24.3048 24.3212 23.1448 24.3212 21.7315V19.4648C24.3212 18.9448 24.6012 18.1848 24.9478 17.7848L26.7612 15.6782C27.5345 14.7582 27.5345 13.2382 26.7478 12.3182ZM19.5478 11.4782L13.1078 17.9182C12.9212 18.1048 12.6678 18.2115 12.4012 18.2115C12.1345 18.2115 11.8812 18.1048 11.6945 17.9182L8.46777 14.6915C8.0811 14.3048 8.0811 13.6648 8.46777 13.2782C8.85444 12.8915 9.49444 12.8915 9.8811 13.2782L12.4012 15.7982L18.1345 10.0648C18.5212 9.67817 19.1612 9.67817 19.5478 10.0648C19.9345 10.4515 19.9345 11.0915 19.5478 11.4782Z" fill="#1E93FF"/>
</svg>
